HIERARCHY
ROOT Hips
{
  OFFSET 0.0 0.0 0.0
  CHANNELS 6 Xposition Yposition Zposition Zrotation Yrotation Xrotation
  JOINT LHipJoint
  {
    OFFSET 0.0 0.0 0.0
    CHANNELS 3 Zrotation Yrotation Xrotation
    JOINT LeftUpLeg
    {
      OFFSET 1.363059998 -1.794630051 0.839290023
      CHANNELS 3 Zrotation Yrotation Xrotation
      JOINT LeftLeg
      {
        OFFSET 2.448110104 -6.726130009 0.0
        CHANNELS 3 Zrotation Yrotation Xrotation
        JOINT LeftFoot
        {
          OFFSET 2.562200069 -7.039589882 0.0
          CHANNELS 3 Zrotation Yrotation Xrotation
          JOINT LeftToeBase
          {
            OFFSET 0.157639995 -0.433109999 2.322550058
            CHANNELS 3 Zrotation Yrotation Xrotation
            End Site
            {
              OFFSET 0.0 -0.0 1.189659953
            }
          }
        }
      }
    }
  }
  JOINT RHipJoint
  {
    OFFSET 0.0 0.0 0.0
    CHANNELS 3 Zrotation Yrotation Xrotation
    JOINT RightUpLeg
    {
      OFFSET -1.305520058 -1.794630051 0.839290023
      CHANNELS 3 Zrotation Yrotation Xrotation
      JOINT RightLeg
      {
        OFFSET -2.54253006 -6.985549927 0.0
        CHANNELS 3 Zrotation Yrotation Xrotation
        JOINT RightFoot
        {
          OFFSET -2.568259954 -7.056230068 0.0
          CHANNELS 3 Zrotation Yrotation Xrotation
          JOINT RightToeBase
          {
            OFFSET -0.164729998 -0.452589989 2.363149881
            CHANNELS 3 Zrotation Yrotation Xrotation
            End Site
            {
              OFFSET -0.0 -0.0 1.21081996
            }
          }
        }
      }
    }
  }
  JOINT LowerBack
  {
    OFFSET 0.0 0.0 0.0
    CHANNELS 3 Zrotation Yrotation Xrotation
    JOINT Spine
    {
      OFFSET 0.028270001 2.035589933 -0.193379998
      CHANNELS 3 Zrotation Yrotation Xrotation
      JOINT Spine1
      {
        OFFSET 0.05672 2.04885006 -0.042750001
        CHANNELS 3 Zrotation Yrotation Xrotation
        JOINT Neck
        {
          OFFSET 0.0 0.0 0.0
          CHANNELS 3 Zrotation Yrotation Xrotation
          JOINT Neck1
          {
            OFFSET -0.054170001 1.74624002 0.172020003
            CHANNELS 3 Zrotation Yrotation Xrotation
            JOINT Head
            {
              OFFSET 0.10407 1.761360049 -0.123970002
              CHANNELS 3 Zrotation Yrotation Xrotation
              End Site
              {
                OFFSET 0.0372 1.770439982 -0.062410001
              }
            }
          }
        }
        JOINT LeftShoulder
        {
          OFFSET 0.0 0.0 0.0
          CHANNELS 3 Zrotation Yrotation Xrotation
          JOINT LeftArm
          {
            OFFSET 3.362410069 1.200889945 -0.311210006
            CHANNELS 3 Zrotation Yrotation Xrotation
            JOINT LeftForeArm
            {
              OFFSET 4.982999802 -0.0 -0.0
              CHANNELS 3 Zrotation Yrotation Xrotation
              JOINT LeftHand
              {
                OFFSET 3.483560085 -0.0 -0.0
                CHANNELS 3 Zrotation Yrotation Xrotation
                JOINT LeftFingerBase
                {
                  OFFSET 0.0 0.0 0.0
                  CHANNELS 3 Zrotation Yrotation Xrotation
                  JOINT LeftHandIndex1
                  {
                    OFFSET 0.715260029 -0.0 -0.0
                    CHANNELS 3 Zrotation Yrotation Xrotation
                    End Site
                    {
                      OFFSET 0.576659977 -0.0 -0.0
                    }
                  }
                }
                JOINT LThumb
                {
                  OFFSET 0.0 0.0 0.0
                  CHANNELS 3 Zrotation Yrotation Xrotation
                  End Site
                  {
                    OFFSET 0.585470021 -0.0 0.585470021
                  }
                }
              }
            }
          }
        }
        JOINT RightShoulder
        {
          OFFSET 0.0 0.0 0.0
          CHANNELS 3 Zrotation Yrotation Xrotation
          JOINT RightArm
          {
            OFFSET -3.136600018 1.374050021 -0.404650003
            CHANNELS 3 Zrotation Yrotation Xrotation
            JOINT RightForeArm
            {
              OFFSET -5.241899967 -0.0 -0.0
              CHANNELS 3 Zrotation Yrotation Xrotation
              JOINT RightHand
              {
                OFFSET -3.444169998 -0.0 -0.0
                CHANNELS 3 Zrotation Yrotation Xrotation
                JOINT RightFingerBase
                {
                  OFFSET 0.0 0.0 0.0
                  CHANNELS 3 Zrotation Yrotation Xrotation
                  JOINT RightHandIndex1
                  {
                    OFFSET -0.622529984 -0.0 -0.0
                    CHANNELS 3 Zrotation Yrotation Xrotation
                    End Site
                    {
                      OFFSET -0.501900017 -0.0 -0.0
                    }
                  }
                }
                JOINT RThumb
                {
                  OFFSET 0.0 0.0 0.0
                  CHANNELS 3 Zrotation Yrotation Xrotation
                  End Site
                  {
                    OFFSET -0.509559989 -0.0 0.509559989
                  }
                }
              }
            }
          }
        }
      }
    }
  }
}
MOTION
Frames: 4
Frame Time: 0.0083333
-1.732598543 26.109500885 15.714704514 -174.949996948 2.197098255 151.677993774 0.0 -0.0 0.0 3.699099541 -2.745199442 -39.468307495 11.298402786 18.077999115 63.746906281 0.778900146 3.953000307 15.809202194 0.025800003 1.037199974 2.851100206 0.0 -0.0 0.0 9.537201881 1.003998995 -29.479694366 -20.210302353 -19.998897552 90.614807129 -5.673000813 -22.212799072 44.197704315 -11.468097687 -18.156599045 64.292686462 0.338300169 -2.830900431 32.282100677 4.07749939 0.135899976 10.494799614 4.20510006 1.422600389 -5.693199635 0.742999852 10.296200752 18.841796875 -3.827499628 14.581801414 2.709500074 -2.427600145 7.747400761 -1.9368999 0.0 -0.0 0.0 34.145011902 -22.340303421 -68.432601929 106.487518311 -58.947475433 -74.228111267 0.0 0.0 -9.576498985 19.969799042 10.154100418 3.665400505 -7.125 0.0 0.0 -6.23089838 40.690895081 0.665000081 0.0 -0.0 0.0 -60.668800354 38.093605042 -91.438812256 -105.228507996 59.105308533 -73.148605347 0.0 0.0 -2.92980051 -27.05450058 -27.01379776 13.060099602 7.125 -0.0 0.0 3.606101274 -59.733612061 -1.298000574 
-1.731298685 26.101699829 15.707105637 -174.89100647 2.220300913 151.755996704 0.0 -0.0 0.0 3.795000076 -2.439100027 -39.594696045 11.810004234 18.309196472 65.385299683 0.791500032 2.726000309 16.107402802 0.0046 -0.438499898 -1.205000043 0.0 -0.0 0.0 9.531401634 0.897402227 -29.466508865 -20.540811539 -19.992994308 91.58139801 -5.595400333 -22.220005035 43.895309448 -11.459399223 -18.152698517 64.264823914 0.338400036 -2.800499678 32.244995117 4.142299652 0.170600027 10.464299202 4.265900612 1.434399962 -5.714100838 1.027599931 10.475500107 18.998102188 -4.078000069 14.877098083 2.651999235 -2.584599972 7.907398701 -1.933300018 0.0 -0.0 0.0 34.076400757 -22.313199997 -68.402481079 106.562316895 -58.937683105 -74.29221344 0.0 0.0 -9.551100731 19.979299545 10.169698715 3.672899723 -7.125 0.0 0.0 -6.224999905 40.708194733 0.661700785 0.0 -0.0 0.0 -60.756999969 38.171504974 -91.545402527 -105.367378235 59.088603973 -73.267776489 0.0 0.0 -2.773400068 -29.499403 -26.467199326 14.152200699 7.125 -0.0 0.0 0.555599749 -59.749389648 -0.200099796 
-1.732398272 26.097099304 15.700803757 -174.796005249 2.217900515 151.841995239 0.0 -0.0 0.0 3.951600075 -2.199500084 -39.712898254 12.325904846 18.524999619 67.018089294 0.829699934 2.834799767 16.486598969 0.0 -0.026800005 -0.073700011 0.0 -0.0 0.0 9.493402481 0.798501015 -29.54400444 -20.866706848 -19.98200798 92.534881592 -5.508798122 -22.297000885 43.565704346 -11.452400208 -18.149400711 64.242118835 0.421800226 -2.809900522 32.157699585 4.20459938 0.177100018 10.432997704 4.284900188 1.433099985 -5.71269989 1.204600334 10.628702164 19.354204178 -4.308999538 15.07940197 2.304199696 -2.747699738 8.013798714 -2.077099562 0.0 -0.0 0.0 33.974994659 -22.30389595 -68.318084717 106.655807495 -58.925403595 -74.372314453 0.0 0.0 -9.49720192 20.027002335 10.237999916 3.706799984 -7.125 0.0 0.0 -6.194001675 40.784309387 0.64670068 0.0 -0.0 0.0 -60.787899017 38.209400177 -91.60181427 -105.508682251 59.071403503 -73.38898468 0.0 0.0 -2.669899702 -30.103103638 -26.493402481 14.500403404 7.125 -0.0 0.0 -0.146200016 -59.927902222 0.053199999 
-1.73369813 26.105300903 15.697004318 -174.710998535 2.169398785 151.934005737 0.0 -0.0 0.0 4.092599869 -2.088200092 -39.797393799 12.845204353 18.725603104 68.644088745 0.856799781 2.944099188 16.744695663 0.0014 0.241099998 0.662400126 0.0 -0.0 0.0 9.432699203 0.641701043 -29.627403259 -21.168394089 -19.967189789 93.418083191 -5.420599937 -22.013401031 43.178897858 -11.441102982 -18.144302368 64.205909729 0.501399875 -2.836399317 32.050498962 4.254899502 0.15899983 10.406699181 4.300899506 1.420299649 -5.694699764 1.328599811 10.775300026 19.597898483 -4.435200214 15.292896271 2.178299904 -2.848300219 8.12730217 -2.135200024 0.0 -0.0 0.0 33.852794647 -22.276098251 -68.195503235 106.758003235 -58.911804199 -74.459793091 0.0 0.0 -9.547599792 20.181400299 10.264300346 3.747200251 -7.125 0.0 0.0 -6.062699318 40.825595856 0.626700044 0.0 -0.0 0.0 -60.786094666 38.165493011 -91.426696777 -105.505081177 59.071819305 -73.385879517 0.0 0.0 -3.34800005 -30.8791008 -25.888399124 14.632900238 7.125 -0.0 0.0 -1.25459969 -59.462493896 0.443199813 
